<?xml version="1.0" encoding="UTF-8" standalone="no"?>
<!-- Created with Inkscape (http://www.inkscape.org/) -->

<svg
   xmlns:dc="http://purl.org/dc/elements/1.1/"
   xmlns:cc="http://creativecommons.org/ns#"
   xmlns:rdf="http://www.w3.org/1999/02/22-rdf-syntax-ns#"
   xmlns:svg="http://www.w3.org/2000/svg"
   xmlns="http://www.w3.org/2000/svg"
   xmlns:sodipodi="http://sodipodi.sourceforge.net/DTD/sodipodi-0.dtd"
   xmlns:inkscape="http://www.inkscape.org/namespaces/inkscape"
   id="svg8"
   version="1.1"
   viewBox="0 0 29.104166 29.104167"
   height="110"
   width="110"
   inkscape:version="0.92.3 (2405546, 2018-03-11)"
   sodipodi:docname="crossword_logo.svg">
  <defs
     id="defs2" />
  <sodipodi:namedview
     inkscape:window-maximized="1"
     inkscape:window-y="0"
     inkscape:window-x="0"
     inkscape:window-height="1363"
     inkscape:window-width="2560"
     showgrid="false"
     inkscape:current-layer="svg8"
     inkscape:document-units="mm"
     inkscape:cy="41.488172"
     inkscape:cx="-71.967392"
     inkscape:zoom="2.8"
     inkscape:pageshadow="2"
     inkscape:pageopacity="0.0"
     borderopacity="1.0"
     bordercolor="#666666"
     pagecolor="#ffffff"
     id="base"
     units="px" />
  <metadata
     id="metadata5">
    <rdf:RDF>
      <cc:Work
         rdf:about="">
        <dc:format>image/svg+xml</dc:format>
        <dc:type
           rdf:resource="http://purl.org/dc/dcmitype/StillImage" />
        <dc:title></dc:title>
      </cc:Work>
    </rdf:RDF>
  </metadata>
  <g
     inkscape:label="Layer 1"
     inkscape:groupmode="layer"
     id="layer1"
     transform="translate(0,-267.89582)" />
  <path
     d="M 0,0 0,29.104166 M 2.6458333,0 l 0,29.104166 M 5.2916665,0 l 0,29.104166 M 7.9374998,0 l 0,29.104166 M 10.583333,0 l 0,29.104166 M 13.229166,0 l 0,29.104166 M 15.875,0 l 0,29.104166 M 18.520833,0 l 0,29.104166 M 21.166666,0 l 0,29.104166 M 23.812499,0 l 0,29.104166 M 26.458333,0 l 0,29.104166 M 0,0 29.104166,0 M 0,2.6458333 l 29.104166,0 M 0,5.2916665 l 29.104166,0 M 0,7.9374998 l 29.104166,0 M 0,10.583333 l 29.104166,0 M 0,13.229166 l 29.104166,0 M 0,15.875 l 29.104166,0 M 0,18.520833 l 29.104166,0 M 0,21.166666 l 29.104166,0 M 0,23.812499 l 29.104166,0 M 0,26.458333 l 29.104166,0"
     style="fill:none;stroke:#000000;stroke-width:0.264583px"
     id="path853" />
  <path
     style="opacity:1;fill:#000000;stroke-width:3.96500015;stroke-miterlimit:4;stroke-dasharray:none"
     d="m 10.675466,14.976114 v -4.464286 h 4.285714 4.285714 v 4.464286 4.464285 H 14.96118 10.675466 Z"
     id="path855"
     inkscape:connector-curvature="0"
     transform="scale(0.26458333)" />
  <path
     style="opacity:1;fill:#000000;stroke-width:3.96500015;stroke-miterlimit:4;stroke-dasharray:none"
     d="m 30.675466,14.976114 v -4.464286 h 4.285714 4.285714 v 4.464286 4.464285 H 34.96118 30.675466 Z"
     id="path857"
     inkscape:connector-curvature="0"
     transform="scale(0.26458333)" />
  <path
     style="opacity:1;fill:#000000;stroke-width:3.96500015;stroke-miterlimit:4;stroke-dasharray:none"
     d="m 30.675466,24.976114 v -4.464286 h 4.285714 4.285714 v 4.464286 4.464285 H 34.96118 30.675466 Z"
     id="path859"
     inkscape:connector-curvature="0"
     transform="scale(0.26458333)" />
  <path
     style="opacity:1;fill:#000000;stroke-width:3.96500015;stroke-miterlimit:4;stroke-dasharray:none"
     d="m 30.675466,34.976114 v -4.464286 h 4.285714 4.285714 v 4.464286 4.464285 H 34.96118 30.675466 Z"
     id="path861"
     inkscape:connector-curvature="0"
     transform="scale(0.26458333)" />
  <path
     style="opacity:1;fill:#000000;stroke-width:3.96500015;stroke-miterlimit:4;stroke-dasharray:none"
     d="m 20.675466,34.976114 v -4.464286 h 4.285714 4.285714 v 4.464286 4.464285 H 24.96118 20.675466 Z"
     id="path863"
     inkscape:connector-curvature="0"
     transform="scale(0.26458333)" />
  <path
     style="opacity:1;fill:#000000;stroke-width:3.96500015;stroke-miterlimit:4;stroke-dasharray:none"
     d="m 10.675466,34.976114 v -4.464286 h 4.285714 4.285714 v 4.464286 4.464285 H 14.96118 10.675466 Z"
     id="path865"
     inkscape:connector-curvature="0"
     transform="scale(0.26458333)" />
  <path
     style="opacity:1;fill:#000000;stroke-width:3.96500015;stroke-miterlimit:4;stroke-dasharray:none"
     d="m 50.675466,14.976114 v -4.464286 h 4.285714 4.285714 v 4.464286 4.464285 H 54.96118 50.675466 Z"
     id="path867"
     inkscape:connector-curvature="0"
     transform="scale(0.26458333)" />
  <path
     style="opacity:1;fill:#000000;stroke-width:3.96500015;stroke-miterlimit:4;stroke-dasharray:none"
     d="m 50.675466,34.976114 v -4.464286 h 4.285714 4.285714 v 4.464286 4.464285 H 54.96118 50.675466 Z"
     id="path869"
     inkscape:connector-curvature="0"
     transform="scale(0.26458333)" />
  <path
     style="opacity:1;fill:#000000;stroke-width:3.96500015;stroke-miterlimit:4;stroke-dasharray:none"
     d="m 52.729037,59.533115 c 1.227679,-0.06974 3.236607,-0.06974 4.464286,0 1.227678,0.06974 0.223214,0.126799 -2.232143,0.126799 -2.455357,0 -3.459821,-0.05706 -2.232143,-0.126799 z"
     id="path871"
     inkscape:connector-curvature="0"
     transform="scale(0.26458333)" />
  <path
     style="opacity:1;fill:#000000;stroke-width:3.96500015;stroke-miterlimit:4;stroke-dasharray:none"
     d="m 50.675466,54.976114 v -4.464286 h 4.285714 4.285714 v 4.464286 4.464285 H 54.96118 50.675466 Z"
     id="path873"
     inkscape:connector-curvature="0"
     transform="scale(0.26458333)" />
  <path
     style="opacity:1;fill:#000000;stroke-width:3.96500015;stroke-miterlimit:4;stroke-dasharray:none"
     d="m 50.675466,74.976114 v -4.464286 h 4.285714 4.285714 V 74.976114 79.4404 H 54.96118 50.675466 Z"
     id="path875"
     inkscape:connector-curvature="0"
     transform="scale(0.26458333)" />
  <path
     style="opacity:1;fill:#000000;stroke-width:3.96500015;stroke-miterlimit:4;stroke-dasharray:none"
     d="m 50.675466,94.976114 v -4.464286 h 4.285714 4.285714 V 94.976114 99.4404 H 54.96118 50.675466 Z"
     id="path877"
     inkscape:connector-curvature="0"
     transform="scale(0.26458333)" />
  <path
     style="opacity:1;fill:#000000;stroke-width:3.96500015;stroke-miterlimit:4;stroke-dasharray:none"
     d="m 30.675466,54.976114 v -4.464286 h 4.285714 4.285714 v 4.464286 4.464285 H 34.96118 30.675466 Z"
     id="path879"
     inkscape:connector-curvature="0"
     transform="scale(0.26458333)" />
  <path
     style="opacity:1;fill:#000000;stroke-width:3.96500015;stroke-miterlimit:4;stroke-dasharray:none"
     d="m 10.675466,54.976114 v -4.464286 h 4.285714 4.285714 v 4.464286 4.464285 H 14.96118 10.675466 Z"
     id="path881"
     inkscape:connector-curvature="0"
     transform="scale(0.26458333)" />
  <path
     style="opacity:1;fill:#000000;stroke-width:3.96500015;stroke-miterlimit:4;stroke-dasharray:none"
     d="m 70.675466,54.976114 v -4.464286 h 4.285714 4.285714 v 4.464286 4.464285 H 74.96118 70.675466 Z"
     id="path883"
     inkscape:connector-curvature="0"
     transform="scale(0.26458333)" />
  <path
     style="opacity:1;fill:#000000;stroke-width:3.96500015;stroke-miterlimit:4;stroke-dasharray:none"
     d="m 90.675466,54.976114 v -4.464286 h 4.285714 4.285714 v 4.464286 4.464285 H 94.96118 90.675466 Z"
     id="path885"
     inkscape:connector-curvature="0"
     transform="scale(0.26458333)" />
  <path
     style="opacity:1;fill:#000000;stroke-width:3.96500015;stroke-miterlimit:4;stroke-dasharray:none"
     d="m 70.675466,34.976114 v -4.464286 h 4.285714 4.285714 v 4.464286 4.464285 H 74.96118 70.675466 Z"
     id="path887"
     inkscape:connector-curvature="0"
     transform="scale(0.26458333)" />
  <path
     style="opacity:1;fill:#000000;stroke-width:3.96500015;stroke-miterlimit:4;stroke-dasharray:none"
     d="m 70.675466,24.976114 v -4.464286 h 4.285714 4.285714 v 4.464286 4.464285 H 74.96118 70.675466 Z"
     id="path889"
     inkscape:connector-curvature="0"
     transform="scale(0.26458333)" />
  <path
     style="opacity:1;fill:#000000;stroke-width:3.96500015;stroke-miterlimit:4;stroke-dasharray:none"
     d="m 70.675466,14.976114 v -4.464286 h 4.285714 4.285714 v 4.464286 4.464285 H 74.96118 70.675466 Z"
     id="path891"
     inkscape:connector-curvature="0"
     transform="scale(0.26458333)" />
  <path
     style="opacity:1;fill:#000000;stroke-width:3.96500015;stroke-miterlimit:4;stroke-dasharray:none"
     d="m 80.675466,34.976114 v -4.464286 h 4.285714 4.285714 v 4.464286 4.464285 H 84.96118 80.675466 Z"
     id="path893"
     inkscape:connector-curvature="0"
     transform="scale(0.26458333)" />
  <path
     style="opacity:1;fill:#000000;stroke-width:3.96500015;stroke-miterlimit:4;stroke-dasharray:none"
     d="m 90.675466,34.976114 v -4.464286 h 4.285714 4.285714 v 4.464286 4.464285 H 94.96118 90.675466 Z"
     id="path895"
     inkscape:connector-curvature="0"
     transform="scale(0.26458333)" />
  <path
     style="opacity:1;fill:#000000;stroke-width:3.96500015;stroke-miterlimit:4;stroke-dasharray:none"
     d="m 90.675466,14.976114 v -4.464286 h 4.285714 4.285714 v 4.464286 4.464285 H 94.96118 90.675466 Z"
     id="path897"
     inkscape:connector-curvature="0"
     transform="scale(0.26458333)" />
  <path
     style="opacity:1;fill:#000000;stroke-width:3.96500015;stroke-miterlimit:4;stroke-dasharray:none"
     d="m 70.675466,94.976114 v -4.464286 h 4.285714 4.285714 V 94.976114 99.4404 H 74.96118 70.675466 Z"
     id="path899"
     inkscape:connector-curvature="0"
     transform="scale(0.26458333)" />
  <path
     style="opacity:1;fill:#000000;stroke-width:3.96500015;stroke-miterlimit:4;stroke-dasharray:none"
     d="m 70.675466,84.976114 v -4.464286 h 4.285714 4.285714 V 84.976114 89.4404 H 74.96118 70.675466 Z"
     id="path901"
     inkscape:connector-curvature="0"
     transform="scale(0.26458333)" />
  <path
     style="opacity:1;fill:#000000;stroke-width:3.96500015;stroke-miterlimit:4;stroke-dasharray:none"
     d="m 70.675466,74.976114 v -4.464286 h 4.285714 4.285714 V 74.976114 79.4404 H 74.96118 70.675466 Z"
     id="path903"
     inkscape:connector-curvature="0"
     transform="scale(0.26458333)" />
  <path
     style="opacity:1;fill:#000000;stroke-width:3.96500015;stroke-miterlimit:4;stroke-dasharray:none"
     d="m 80.675466,74.976114 v -4.464286 h 4.285714 4.285714 V 74.976114 79.4404 H 84.96118 80.675466 Z"
     id="path905"
     inkscape:connector-curvature="0"
     transform="scale(0.26458333)" />
  <path
     style="opacity:1;fill:#000000;stroke-width:3.96500015;stroke-miterlimit:4;stroke-dasharray:none"
     d="m 90.675466,74.976114 v -4.464286 h 4.285714 4.285714 V 74.976114 79.4404 H 94.96118 90.675466 Z"
     id="path907"
     inkscape:connector-curvature="0"
     transform="scale(0.26458333)" />
  <path
     style="opacity:1;fill:#000000;stroke-width:3.96500015;stroke-miterlimit:4;stroke-dasharray:none"
     d="m 90.675466,94.976114 v -4.464286 h 4.285714 4.285714 V 94.976114 99.4404 H 94.96118 90.675466 Z"
     id="path909"
     inkscape:connector-curvature="0"
     transform="scale(0.26458333)" />
  <path
     style="opacity:1;fill:#000000;stroke-width:3.96500015;stroke-miterlimit:4;stroke-dasharray:none"
     d="m 10.675466,74.976114 v -4.464286 h 4.285714 4.285714 V 74.976114 79.4404 H 14.96118 10.675466 Z"
     id="path911"
     inkscape:connector-curvature="0"
     transform="scale(0.26458333)" />
  <path
     style="opacity:1;fill:#000000;stroke-width:3.96500015;stroke-miterlimit:4;stroke-dasharray:none"
     d="m 30.675466,74.976114 v -4.464286 h 4.285714 4.285714 V 74.976114 79.4404 H 34.96118 30.675466 Z"
     id="path913"
     inkscape:connector-curvature="0"
     transform="scale(0.26458333)" />
  <path
     style="opacity:1;fill:#000000;stroke-width:3.96500015;stroke-miterlimit:4;stroke-dasharray:none"
     d="m 20.675466,74.976114 v -4.464286 h 4.285714 4.285714 V 74.976114 79.4404 H 24.96118 20.675466 Z"
     id="path915"
     inkscape:connector-curvature="0"
     transform="scale(0.26458333)" />
  <path
     style="opacity:1;fill:#000000;stroke-width:3.96500015;stroke-miterlimit:4;stroke-dasharray:none"
     d="m 30.675466,84.976114 v -4.464286 h 4.285714 4.285714 V 84.976114 89.4404 H 34.96118 30.675466 Z"
     id="path917"
     inkscape:connector-curvature="0"
     transform="scale(0.26458333)" />
  <path
     style="opacity:1;fill:#000000;stroke-width:3.96500015;stroke-miterlimit:4;stroke-dasharray:none"
     d="m 30.675466,94.976114 v -4.464286 h 4.285714 4.285714 V 94.976114 99.4404 H 34.96118 30.675466 Z"
     id="path919"
     inkscape:connector-curvature="0"
     transform="scale(0.26458333)" />
  <path
     style="opacity:1;fill:#000000;stroke-width:3.96500015;stroke-miterlimit:4;stroke-dasharray:none"
     d="m 10.675466,94.976114 v -4.464286 h 4.285714 4.285714 V 94.976114 99.4404 H 14.96118 10.675466 Z"
     id="path921"
     inkscape:connector-curvature="0"
     transform="scale(0.26458333)" />
</svg>
